<?xml version="1.0" encoding="UTF-8" standalone="no"?>
<!-- Created with Inkscape (http://www.inkscape.org/) -->

<svg
   xmlns:dc="http://purl.org/dc/elements/1.1/"
   xmlns:cc="http://creativecommons.org/ns#"
   xmlns:rdf="http://www.w3.org/1999/02/22-rdf-syntax-ns#"
   xmlns:svg="http://www.w3.org/2000/svg"
   xmlns="http://www.w3.org/2000/svg"
   xmlns:sodipodi="http://sodipodi.sourceforge.net/DTD/sodipodi-0.dtd"
   xmlns:inkscape="http://www.inkscape.org/namespaces/inkscape"
   width="210mm"
   height="297mm"
   viewBox="0 0 210 297"
   version="1.1"
   id="svg8"
   inkscape:version="0.92.3 (unknown)"
   sodipodi:docname="05-teuton-inkscape.svg"
   inkscape:export-filename="/home/david/Descargas/teuton/png/06-teuton.png"
   inkscape:export-xdpi="96"
   inkscape:export-ydpi="96">
  <defs
     id="defs2" />
  <sodipodi:namedview
     id="base"
     pagecolor="#ffffff"
     bordercolor="#666666"
     borderopacity="1.0"
     inkscape:pageopacity="0.0"
     inkscape:pageshadow="2"
     inkscape:zoom="0.76"
     inkscape:cx="329.54219"
     inkscape:cy="563.28638"
     inkscape:document-units="mm"
     inkscape:current-layer="layer1"
     showgrid="false"
     inkscape:window-width="1366"
     inkscape:window-height="714"
     inkscape:window-x="0"
     inkscape:window-y="0"
     inkscape:window-maximized="1" />
  <metadata
     id="metadata5">
    <rdf:RDF>
      <cc:Work
         rdf:about="">
        <dc:format>image/svg+xml</dc:format>
        <dc:type
           rdf:resource="http://purl.org/dc/dcmitype/StillImage" />
        <dc:title></dc:title>
      </cc:Work>
    </rdf:RDF>
  </metadata>
  <g
     inkscape:label="Capa 1"
     inkscape:groupmode="layer"
     id="layer1">
    <path
       style="fill:#000000;stroke-width:0.35277778"
       d="m 126.34484,191.84514 c -1.94028,-0.12738 -4.83918,-0.17546 -6.442,-0.10684 -2.23366,0.0956 -3.50378,-0.042 -3.43327,-0.38872 0.15553,-0.76479 -3.76605,-1.17943 -6.6428,-0.63663 -1.40449,0.26501 -3.09451,0.5366 -4.04239,0.39446 -1.5205,-0.22801 -2.34926,0.0745 -3.0257,-1.45473 -0.68097,-1.53946 -0.63682,-1.59301 -0.22003,-4.69861 0.43003,-3.20419 1.49767,-4.29779 1.49767,-4.29779 2.59113,-0.51823 -0.89984,-1.66406 -3.88957,-1.27666 -1.709315,0.22149 -2.072489,0.54607 -1.314694,1.17498 0.288903,0.23977 1.136334,2.20265 1.136334,2.79359 0,0.59094 -0.06623,1.36444 0.15157,2.6151 0.30727,1.76448 0.11256,2.45506 -0.23419,3.5057 -0.246613,0.91607 -0.97606,0.81658 -1.595884,1.08795 -0.296055,0.13188 -3.865915,0.19677 -7.93302,0.1442 -3.714886,-0.18422 -5.741457,0.41931 -7.950003,-0.82167 -0.73269,-0.67004 -0.72409,-1.50215 -0.226986,-3.79288 0.110177,-1.92381 0.806438,-2.48564 1.378388,-4.10545 0.229888,-0.6665 1.786596,-2.76268 2.189722,-3.31386 l 0.732956,-1.00216 -1.058333,-0.84817 c -1.157232,-0.92744 -1.769576,-1.06051 -2.137862,-0.46461 -0.131576,0.21289 -1.371258,1.11346 -2.754849,2.00127 -1.383594,0.88781 -2.833123,1.9112 -3.221179,2.2742 -6.85584,6.41319 -8.283784,7.51913 -10.163796,7.87182 -1.663097,0.312 -2.83803,-0.77567 -10.674924,-7.39531 -5.534948,-4.67527 -5.861314,-5.88759 -7.712225,-8.24126 -0.902182,-1.90543 -0.689344,-2.99627 -0.318356,-5.04914 0.01901,-0.10521 0.03615,-0.211 0.05169,-0.3175 0.161118,-1.10448 0.14973,-2.28628 0.264372,-3.70199 0.125696,-1.55222 0.280377,-3.29847 0.343732,-3.88055 0.456674,-4.19572 0.544105,-12.74197 0.160602,-15.69861 -0.848306,-6.5401 -0.872078,-6.05364 0.356969,-7.30494 0.61116,-0.62222 1.416553,-1.22824 1.789762,-1.34669 0.373209,-0.11845 0.678562,-0.34141 0.678562,-0.49547 0,-0.15405 1.17556,-1.18051 2.612357,-2.28101 2.478091,-1.89806 2.781795,-2.02898 5.909028,-2.54717 5.568706,-0.92275 10.1733,-0.89148 13.978247,0.0949 1.800284,0.46671 3.812747,1.10584 4.472142,1.42028 1.169327,0.55761 1.226308,0.54865 2.310073,-0.36328 0.738795,-0.69316 1.761636,-1.10897 2.439635,-1.66896 l 0.853426,-0.71049 -1.782611,-1.83541 c -0.980436,-1.00947 -2.370205,-2.61937 -3.088379,-3.57755 -1.210035,-1.61441 -1.28706,-1.86012 -1.050583,-3.35139 0.407688,-2.57096 0.430565,-4.16959 0.121483,-8.48841 -0.159689,-2.23132 -0.388395,-5.88257 -0.50824,-8.11389 -0.239995,-4.468395 -1.427829,-11.293575 -2.743499,-15.763875 l -0.849825,-2.88749 1.115584,-1.081264 c 0.613572,-0.594697 1.388083,-1.081267 1.721134,-1.081267 0.333054,0 1.438659,-0.678576 2.456903,-1.507947 1.018244,-0.82937 2.722563,-1.864094 3.787376,-2.299387 1.064814,-0.435292 2.667844,-1.18212 3.562291,-1.659617 2.129998,-1.137095 5.382859,-1.949476 9.309848,-2.325075 6.590372,-0.630342 11.078032,0.373524 18.987242,4.247343 3.14913,1.542396 4.75242,2.133572 5.78634,2.133572 0.8844,0 1.74802,0.25797 2.26303,0.675984 0.75196,0.610342 0.83023,0.944346 0.80603,3.439588 -0.0148,1.51998 -0.36272,4.27172 -0.77327,6.11498 -0.41055,1.84327 -0.91578,4.78014 -1.12273,6.52639 -0.8822,7.444125 -1.43634,11.783995 -1.64237,12.862805 -0.0542,0.28357 -0.19827,3.5309 -0.32026,7.21629 l -0.22179,6.70071 -1.29778,1.13514 -1.29778,1.13513 3.35139,3.41247 c 1.84326,1.87685 4.42295,4.45082 5.73264,5.71993 1.92078,1.86127 1.65921,2.24456 1.65921,2.24456 0.29449,0.94362 0.79126,2.19745 1.21312,1.64173 0.38526,-0.50752 1.03354,-0.61737 3.64344,-0.61737 h 3.17479 l 0.22348,-4.85069 c 0.65176,-14.14662 -0.1486,-33.50904 -1.75002,-42.336705 -0.29072,-1.60258 -0.41161,-3.1107 -0.26863,-3.35139 1.02425,-1.72422 7.0192,-9.294827 8.41649,-10.677503 2.23857,-2.701434 1.01924,-3.85941 4.5348,1.193965 1.55222,2.231215 4.88436,6.877508 5.61235,7.860518 1.76713,2.38616 2.50633,4.01823 2.25519,4.97917 -0.95148,4.058374 -1.75683,7.894535 -2.82307,12.128015 -1.37296,5.70047 -1.90817,11.18249 -3.03662,16.98124 -1.34778,8.21012 -1.36912,8.19349 -1.77606,14.35942 -0.69413,2.8096 -0.31235,2.06078 -0.69413,2.8096 -0.38177,0.74882 -0.61739,1.48566 -0.5236,1.63741 0.0938,0.15175 1.08083,0.38056 2.19343,0.50846 1.54679,0.16026 3.41606,0.24724 4.91824,0.6264 l -0.16095,4.64308 c -0.17537,5.05925 0.31417,5.25278 -2.22441,5.13068 -1.37077,-0.0659 -1.81088,0.13784 -1.96414,0.61736 -0.10852,0.33955 -0.36164,0.96177 -0.5625,1.38271 -0.25593,0.53635 -0.24636,1.10626 0.032,1.90473 0.65711,1.88498 0.50553,4.35447 -0.31274,5.09499 -0.59927,0.54233 -0.67438,0.91046 -0.48187,2.36166 0.31426,2.36896 -0.48749,4.03484 -2.65309,5.51263 -1.18166,0.78575 -2.60744,0.93012 -2.89016,2.17592 -0.20552,0.94638 -0.1073,1.49515 0.42064,2.34991 l 0.68877,1.11519 -1.56966,1.05935 c -1.53556,1.03634 -1.58288,1.04476 -2.17784,0.38734 -0.5976,-0.66035 -0.62717,-0.66038 -1.70293,-0.002 l -1.09476,0.67015 -1.31233,-1.14258 c -1.01994,-0.888 -1.8025,-0.90867 -1.43938,-1.19883 2.43295,-1.94411 1.24825,-9.22058 0.73205,-9.85325 -0.19788,-0.24253 -1.07041,-0.44097 -1.93894,-0.44097 -1.30395,0 -1.75355,-0.18668 -2.57979,-1.07118 -0.55035,-0.58915 -1.0506,-1.41265 -1.11168,-1.83001 -0.0951,-0.64992 -0.48611,-0.8218 -2.72452,-1.19764 -4.561,-0.61321 -3.41916,-0.66399 -5.67394,-2.9127 -0.77454,-0.76683 -1.55908,-1.79097 -1.74344,-2.27586 -0.3039,-0.79932 -0.47706,-0.86387 -1.85495,-0.69149 -1.79097,0.22407 -2.36966,0.62693 -1.7667,1.22989 0.59442,0.59441 0.52761,2.02824 -0.10583,2.27131 -0.76969,0.29536 -0.63366,0.85373 0.5435,2.23092 0.5742,0.67176 1.044,1.4187 1.044,1.65985 0,0.24115 0.46003,1.43777 1.0223,2.65916 1.78111,3.86904 3.56381,9.27964 3.56381,10.8164 0,1.53023 -0.81953,3.22236 -1.56065,3.22236 -0.23164,0 -0.70251,0.20572 -1.04638,0.45717 -0.59796,0.43724 -0.59805,0.51414 -0.002,1.76389 0.64232,1.48738 2.23835,1.88809 3.31938,2.61366 1.06457,0.71882 3.4437,2.08165 5.28696,3.0285 4.41725,2.26908 4.70459,2.54315 4.43484,4.23004 -0.28597,1.78836 -0.921,2.73619 -1.78567,2.66525 -0.38986,-0.032 -2.29636,-0.16237 -4.23664,-0.28975 z m -50.737663,-14.9321 c 2.321909,-1.76672 4.006043,-2.8205 6.433592,-4.58244 2.883357,-2.63559 2.581045,-2.34107 2.893588,-11.86808 0.149938,-4.57037 0.437638,-9.8443 0.639332,-11.71985 0.659536,-6.13295 0.301428,-8.40796 -1.323492,-8.40796 -0.293645,0 -1.652287,-0.816 -3.019206,-1.81334 -1.366919,-0.99734 -3.034908,-2.04298 -3.706647,-2.32365 -2.259006,-0.94387 -5.847751,-1.94398 -7.447562,-2.07548 -0.873125,-0.0718 -2.06375,-0.20967 -2.645834,-0.30644 -0.582083,-0.0968 -1.931458,-0.0175 -2.998611,0.17626 -1.067153,0.19372 -2.9382,0.49476 -4.157883,0.66898 -2.519758,0.35992 -2.760737,0.50605 -5.209096,3.15878 l -1.782257,1.93103 0.485232,4.26068 c 0.725894,6.37386 -1.405871,19.53458 -1.565848,26.54274 0.898038,2.27601 1.79654,2.3329 3.092508,3.79119 2.408698,2.96252 3.410601,3.59023 6.026318,5.8522 2.244142,1.94162 4.651816,3.50559 5.177242,3.51455 2.153705,-1.10755 7.473984,-5.10299 9.108624,-6.79917 z m -8.82043,-3.90017 c -1.32445,-0.41941 -2.777498,-1.0916 -3.228995,-1.49376 -0.985091,-0.87744 -1.266216,-2.93109 -1.371329,-10.01773 -0.03885,-2.61938 -0.180864,-4.94003 -0.315581,-5.15701 -0.134716,-0.21699 -1.161304,-0.49921 -2.281305,-0.62716 -1.120002,-0.12795 -2.212653,-0.3473 -2.428115,-0.48743 -1.33267,-0.86676 -1.298236,-5.05567 -1.268391,-8.19229 0.136525,-1.43248 0.413573,-2.62721 1.588524,-3.44214 1.110344,-0.74862 1.58093,-0.80105 7.858288,-0.87542 7.595943,-0.09 14.993212,0.49434 16.190706,1.27896 1.012497,0.66342 1.381813,2.80173 0.873943,5.06011 -0.208121,0.92546 -0.433296,2.7939 -0.500383,4.1521 -0.06709,1.35819 -0.13631,2.64937 -0.153822,2.86929 -0.05507,0.69156 -1.892314,0.80966 -4.050464,0.26036 -1.229191,-0.31285 -2.625955,-0.43646 -3.418646,-0.30254 -1.574889,0.26608 -1.695079,0.64182 -1.296152,4.05206 0.383876,3.28158 0.08712,11.61791 -0.455231,12.78819 -0.388453,0.8382 -0.645799,0.96517 -1.892277,0.93356 -0.793474,-0.0201 -2.526321,-0.37974 -3.85077,-0.79915 z m 2.713386,-11.47106 c 0.196325,-6.14207 -0.606457,-8.24734 -0.02808,-8.67102 0.437406,-0.32042 1.749715,-0.44333 4.292803,-0.40204 l 3.662807,0.0595 0.205116,-1.02557 c 0.112811,-0.56406 0.205112,-1.79947 0.205112,-2.74536 v -1.71979 l -2.273001,-0.18332 c -0.810617,-0.0654 -5.800604,-0.10768 -7.94628,-0.31397 -3.125912,0.0167 -5.588832,-0.32961 -8.169193,0.0271 -0.118638,5.82561 0,0 -0.118638,5.82561 3.57343,-0.094 6.097428,-0.41391 6.587638,0.34591 0.876919,1.35923 -0.03177,1.74334 -0.103179,7.64999 -0.03714,3.07216 0.365231,8.82932 0.446091,8.91011 0.08084,0.0808 1.221353,1.26565 1.716407,1.00237 l 1.26389,-0.67216 z m 46.707307,12.10933 c 0.63331,-0.26193 1.25599,-0.74857 1.38371,-1.08141 0.21448,-0.55893 0.0838,-2.69576 -0.79885,-4.32278 -0.21051,-0.38805 -1.63608,-3.71736 -2.04768,-4.78451 l -1.3594,-3.71233 -3.1173,0.24217 c -1.14318,0.066 -2.44475,0.48741 -2.66832,0.71248 -0.30698,0.30903 1.21924,2.1462 1.89886,4.67717 0.49496,1.84327 1.28264,3.73568 1.30228,4.80283 l -0.33093,2.42912 -2.29306,0.31452 c -3.47588,0.47677 -6.94319,0.44392 -9.877775,-0.0936 -3.54571,-0.64943 -4.565791,-1.10357 -4.854533,-2.16122 -0.32694,-1.19759 0.224641,-4.21132 0.224641,-4.21132 0,0 0.956989,-5.11526 0.7518,-5.32045 -0.142822,-0.14283 -3.347969,0.24023 -4.853158,0.33251 -0.321681,0.0197 -0.685394,0.98454 -0.685394,3.56654 0,3.07617 0.128971,3.76734 -0.637523,5.27994 -0.48507,0.95724 -0.881945,1.89727 -0.881945,2.08895 0,0.19169 0.595313,0.4493 1.322917,0.57247 0.727604,0.12317 2.574647,1.16866 4.029855,1.57647 5.175533,1.4504 18.184695,1.81657 21.964145,0.25343 z m -10.30656,-5.03409 c 0.24816,-0.24816 -1.13967,-6.97053 -1.54708,-7.51395 -0.36554,-0.48755 -5.326167,-0.49055 -6.015707,-0.0452 -0.40391,0.26085 -0.651375,2.47668 -0.651375,4.82916 0,2.98135 0.823158,2.78516 1.676313,3.04246 0.977669,0.29486 6.210149,0.0153 6.537849,-0.31244 z m 38.528,-2.01308 c 0.94585,-0.51517 1.75041,-0.95227 1.8479,-2.24056 0,-0.38469 -0.15482,-1.10665 -0.34404,-1.60434 -0.53251,-1.40061 -2.85776,-1.19463 -4.89981,0.43404 -1.1902,0.94927 -0.78618,2.72158 0.77648,3.40622 1.40025,0.61348 1.43021,0.56804 2.61947,0.005 z m -8.02987,-5.39675 c 1.20839,-0.59997 1.23265,-0.65414 1.13795,-2.54069 -0.13496,-2.68863 -0.85504,-3.28464 -3.13822,-2.5975 -2.41808,0.72773 -2.99904,1.3811 -2.84649,3.20122 0.14917,1.77981 0.22451,1.87651 1.74205,2.23591 1.64884,0.3905 1.73231,0.38246 3.10471,-0.29894 z m 8.32943,-0.9737 c 0.67443,-0.18103 2.79253,-2.03907 2.53567,-2.46278 -0.0588,-0.097 -0.48172,-1.27548 -0.64107,-1.57323 -0.38173,-0.71326 -5.10876,-0.77168 -5.10876,-0.0631 0,0.24962 -0.17504,0.56712 -0.38899,0.70556 -0.21395,0.13844 -0.3727,0.87963 -0.35278,1.64709 0.0305,1.17321 0.17663,1.43439 0.91816,1.64052 1.14959,0.31956 2.11637,0.35326 3.03777,0.10594 z m -34.65841,-3.81246 c 0.75025,-0.12133 1.50431,-0.30726 1.6757,-0.41318 0.60728,-0.37532 0.29941,-1.4889 -0.56894,-2.05787 -0.73255,-0.47998 -1.38609,-1.08708 -4.19076,-0.88993 -3.21042,0.22567 -3.21179,0.46627 -3.56382,1.74998 -0.45903,0.88766 -0.9968,0.95034 -2.55295,0.80075 -2.442006,-0.23475 -2.654682,-0.34323 -2.378531,-1.2133 0.233063,-0.73433 0.05331,-1.42217 -2.014648,-1.18821 -1.575802,0.17828 -2.788276,0.0258 -4.123999,-0.41113 -2.498023,-0.81706 -3.01945,0.31545 -3.134551,2.39409 l -0.02454,2.70762 8.992666,0.25692 c 5.382873,-0.0878 11.134133,-1.6144 11.884373,-1.73572 z m 20.54122,-1.05575 c 0.63948,-0.65845 1.9709,-1.56245 2.95871,-2.00889 1.19991,-0.54229 1.63668,-1.29936 1.56195,-1.66598 -0.11663,-0.57219 -0.20468,-0.27528 -3.60319,0.15289 -1.71628,0.21622 -1.88811,0.17295 -2.06962,-0.52113 -0.20378,-0.77928 -0.63851,-0.98517 -0.96493,-0.45701 -0.10195,0.16496 -1.62708,0.50657 -3.38918,0.75914 -2.23389,0.3202 -3.09187,0.57116 -2.83406,0.82897 1.14713,2.18916 3.60708,4.00078 5.97855,4.10144 0.9055,0.006 1.48376,-0.28537 2.36177,-1.18943 z m 16.29448,-2.43766 c 1.44903,-1.31135 0.19819,-4.14711 -1.81455,-4.11377 -0.86131,0.0143 -2.50606,0.84309 -2.54374,1.28183 -0.0138,0.16124 -0.24447,0.74445 -0.5125,1.29603 -0.44946,0.92492 -0.42483,1.05 0.31702,1.60958 1.05334,0.79453 3.64067,0.75268 4.55377,-0.0737 z M 98.804003,150.2516 c 0.300866,-0.48682 0.369665,-9.29317 0.07929,-10.14876 -0.142056,-0.41857 -1.323823,-1.44971 -2.626148,-2.29143 -1.302321,-0.84171 -2.420775,-1.65018 -2.48545,-1.7966 -0.06468,-0.14641 -0.273823,-0.26621 -0.464767,-0.26621 -0.190945,0 -1.211915,-0.70442 -2.268827,-1.56537 -1.056908,-0.86095 -2.239232,-1.66616 -2.627383,-1.78936 -0.756267,-0.24003 -2.577543,0.71033 -3.665809,1.91285 -0.616049,0.68073 -0.585668,0.72604 1.257931,1.8763 1.039072,0.64831 2.365474,1.33685 2.947557,1.53009 l 1.058334,0.35136 -0.01609,5.66801 -0.01609,5.66801 2.485528,0.54354 c 2.823895,0.61753 6.053536,0.77417 6.341911,0.30757 z m 18.451077,-0.44286 c 2.99741,-0.40306 4.8448,-1.36204 5.00153,-1.4589 4.53408,-0.60641 3.45124,-1.58849 6.44085,-0.3765 0.6207,0.56173 0.64599,0.48062 0.64599,-2.0718 v -2.65641 l -1.0469,-0.20938 c -0.72971,-0.14594 -1.33173,-0.66059 -1.98702,-1.69864 -1.22427,-1.93937 -10.47798,-11.23296 -11.18476,-11.23296 -0.29912,0 -0.9926,0.36854 -1.54106,0.81897 -1.37714,1.13098 -5.21826,3.40834 -5.80585,3.44222 -0.35544,0.0205 -0.36694,0.0747 -0.0435,0.20529 0.24171,0.0976 -0.49671,0.64526 -1.64093,1.21704 -2.30759,1.15311 -2.95555,1.76666 -3.06347,2.90078 -0.10498,1.10319 -0.19692,5.98822 -0.16889,8.97312 0.0232,2.47183 0.0527,2.55793 0.81784,2.3861 0.43656,-0.098 5.07934,0.59186 8.07675,0.1888 z m 25.99918,-2.61164 c 1.30238,-0.85335 2.683,-0.95596 4.34128,-0.32266 1.97578,0.75456 2.39374,0.55922 2.34861,-1.0976 -0.0302,-1.10715 -0.18931,-1.39457 -0.88195,-1.59278 -1.59318,-0.45594 -15.11131,-1.06336 -15.77384,-0.70879 -0.51948,0.27802 -0.59679,0.63938 -0.43608,2.03827 l 0.19534,1.70034 3.88055,0.19485 c 2.13431,0.10716 4.24333,0.22623 4.68672,0.26458 0.44339,0.0383 1.18111,-0.17594 1.63937,-0.47621 z m 0.96898,-8.99284 c 0.13173,-1.05957 0.48582,-3.67274 0.78686,-5.80705 0.53213,-3.26776 0.56371,-2.67832 1.24146,-9.90261 1.5905,-7.86734 2.45118,-12.00927 4.40753,-20.99884 0.59337,-2.71373 1.07532,-6.09708 1.68031,-8.808215 l -1.17922,-1.5886 c -0.64858,-0.87373 -1.6139,-2.17843 -2.14516,-2.89934 -0.53126,-0.7209 -1.11879,-1.49415 -1.30563,-1.71831 -0.18683,-0.22417 -0.83734,-1.21636 -1.44558,-2.204864 -1.41586,-2.71225 -1.25284,-2.541191 -2.66387,-0.752805 -0.34786,0 -2.78006,3.018119 -4.15913,5.374299 -1.08097,1.84685 -1.09466,1.4361 0.38011,11.396505 0.46854,3.16446 0.58014,7.18167 0.6048,21.76941 0.0294,17.39959 0.0491,17.89728 0.72028,18.19683 0.37953,0.16939 1.17328,0.20945 1.76389,0.089 0.99856,-0.2036 1.09063,-0.35401 1.31335,-2.14544 z m -2.13968,-12.29249 c 0.74786,-7.94419 0.63272,-7.59726 1.14097,-20.13279 0.0559,-9.498487 -0.0506,-4.49307 0.0452,-10.866665 0.071,-4.72305 0.23439,-6.95254 0.53606,-7.31604 0.26502,-0.31933 0.96765,-0.50191 1.80522,-0.46909 0.32433,0.713208 -0.0661,5.362579 -0.1695,11.941886 -0.35405,5.683489 -0.0461,8.968819 -0.63224,17.269789 -0.52989,5.05829 -0.30115,8.22119 -1.91874,12.66171 -1.4156,0.0805 -0.81075,-0.48362 -0.80698,-3.0888 z m -41.59412,7.80767 c 0.27982,-0.33717 0.2718,-0.97027 -0.0292,-2.30466 -0.26635,-1.18081 -0.31069,-2.47158 -0.1238,-3.60368 0.2856,-1.73002 0.26311,-1.79563 -1.171206,-3.4169 -1.437213,-1.62455 -1.466183,-1.7096 -1.682154,-4.93889 -0.120861,-1.80723 -0.481397,-4.71463 -0.801186,-6.46088 -0.319786,-1.74625 -0.76145,-4.20687 -0.98147,-5.46805 l -0.40005,-2.29306 -3.668568,-0.0887 c -2.267532,-0.0548 -3.868978,-0.25497 -4.193336,-0.52417 -0.983012,-0.81582 -1.802765,-3.38658 -1.910013,-5.989795 l -0.105861,-2.56961 2.14116,-1.05834 c 1.177639,-0.58208 4.254027,-2.08731 6.83642,-3.34496 5.272871,-2.56794 6.024034,-3.2797 5.370016,-5.08835 -0.503891,-1.39348 -0.548859,-6.434061 -0.0601,-6.736132 0.541188,-0.334471 0.418958,-1.231473 -0.200187,-1.469059 -0.30413,-0.116706 -0.899443,-0.05105 -1.322917,0.145904 -0.423474,0.196954 -2.278077,0.639559 -4.121341,0.983567 -2.560708,0.477905 -4.266914,1.081016 -7.231944,2.556349 -5.556639,2.764861 -7.527746,4.544011 -6.890678,6.219631 0.190397,0.50078 0.743507,2.87285 1.22913,5.27127 0.485624,2.39841 0.958159,4.58161 1.050079,4.85154 0.253742,0.74516 0.571606,7.734345 0.736286,16.189415 l 0.147729,7.58472 3.451229,3.27997 c 4.259989,4.0486 11.127352,8.85371 12.555622,8.7852 0.544777,-0.0261 1.16412,-0.2567 1.37632,-0.51238 z m 3.27762,-1.69726 c 0.58208,-0.42779 1.43625,-0.89288 1.89815,-1.03353 2.50005,-0.76128 9.48755,-6.08067 10.46148,-7.96404 0.33808,-0.65378 0.5178,-2.07267 0.51978,-4.10363 0.006,-6.61647 1.86172,-23.380675 3.15457,-28.504335 0.99718,-3.95188 0.96814,-4.18113 -0.59995,-4.73662 -1.39994,-0.49593 -2.09406,-0.82265 -6.64604,-3.128274 -1.56953,-0.79498 -3.8714,-1.790601 -5.11528,-2.212491 -1.24388,-0.42189 -2.77625,-1.00361 -3.40527,-1.292711 -1.37351,-0.631277 -2.52168,-0.36938 -1.86252,0.424845 0.44997,0.542189 0.5392,4.570005 0.15763,7.116291 l -0.21918,1.46271 2.23942,1.23973 c 1.23169,0.68184 3.82693,1.65428 5.76721,2.16097 4.56842,1.19302 5.25663,1.69434 5.40875,3.93994 0.17194,2.53799 -0.96605,7.495465 -1.89815,8.269045 -0.32927,0.27327 -1.68889,0.40355 -3.83323,0.3673 -2.10081,-0.0355 -3.41146,0.087 -3.56357,0.33313 -0.13232,0.2141 -0.30813,1.6887 -0.39068,3.27688 -0.76187,14.65756 -1.10178,17.1751 -2.31898,17.1751 -0.22228,0 -0.66869,0.23941 -0.99202,0.53203 -0.49975,0.45226 -0.53946,0.85196 -0.2649,2.66603 0.21643,1.42992 0.19754,2.49389 -0.0572,3.22478 -0.78164,2.24222 -0.56734,2.35032 1.56003,0.78685 z"
       id="path3794"
       inkscape:connector-curvature="0"
       sodipodi:nodetypes="ccccccccccscccccccccccsccccssssscsscscccccccsssscsssccssscccccccccccscscscccccccccccccsscsccccccccccccscscccccccccscssccccccccccscsssccccscscccccscscsccccccccccsscssccccscsccccscscsccccccccccccccccscsssccsccscsscccccsccscscccsscccccccscccscscccccccccccccccccccccccccsccccccccccccccscccsccccccccccccccccccccccccccccccsscccccccccccccccccccccccsccssccssscccscsccccccccccsccccccccccssccccccc" />
  </g>
</svg>
